# xmcd
#
# Track frame offsets: 
#        150
#        19026
#        37928
#        54322
#        80038
#        105386
#        117907
#        139333
#        157967
#        181546
#        203468
#        219874
#        235184
#        251179
#
# Disc length: 3606 seconds
#
# Revision: 1
# Processed by: cddbd v1.5.2PL0 Copyright (c) Steve Scherf et al.
# Submitted via: ExactAudioCopy v1.3
#
DISCID=aa0e140e
DTITLE=Various Artist - Soulbag Sample, Sep 2006
DYEAR=2006
DGENRE=Blues
TTITLE0=Raphael Wressnig with Enrico Crivellaro - Speedin'
TTITLE1=Lynwood Slim - Not your clown
TTITLE2=Mighty Sam McClain - Can't stop the funk
TTITLE3=Nick Moss and The Flip Tops - Check my pulse
TTITLE4=Johnny Drummer - Keep it a secret
TTITLE5=Lil' Ed and The Blues Imperials - Tired of crying
TTITLE6=Harmonica Shah - Mister, I don't care
TTITLE7=Janiva Magness - Bad blood
TTITLE8=Bobby Rush - High temper
TTITLE9=Joe Louis Walker - Juicy fruit
TTITLE10=Ze Bluetones - Big beatin' boogie
TTITLE11=Cephas and Wiggins - Ain't seen my baby
TTITLE12=Big George Brock - Rockin' chair
TTITLE13=M.A.O. - N.O. ballade
EXTD=supplément à Soul Bag N°184, septembre 2006
EXTT0=
EXTT1=
EXTT2=
EXTT3=
EXTT4=
EXTT5=
EXTT6=
EXTT7=
EXTT8=
EXTT9=
EXTT10=
EXTT11=
EXTT12=
EXTT13=
PLAYORDER=
